<svg xmlns="http://www.w3.org/2000/svg" viewBox="0 0 611.921 611.921" style="enable-background:new 0 0 611.921 611.921" xml:space="preserve">
  <path d="M598.506 69.911H13.356C5.921 69.911 0 75.832 0 83.268v445.386c0 7.436 5.921 13.357 13.357 13.357h585.151c7.436 0 13.357-5.921 13.357-13.357V83.268c.755-7.436-5.924-13.357-13.359-13.357zm-97.422 362.835H27.471V178.418H585.082v254.329h-83.998zm84.065-281.799h-69.882V96.694h69.882v54.253zm-97.422 0h-70.639V96.694h69.882v54.253h.757zm-98.179 0h-69.882V96.694h69.882v54.253zm-97.352 0h-69.951V96.694h69.882l.069 54.253zm-97.422 0h-69.882V96.694h69.882v54.253zM27.471 97.382h69.882v54.253H27.471V97.382zm0 362.904h69.882v54.253H27.471v-54.253zm97.421 0h69.882v54.253h-69.882v-54.253zm97.353 0h69.882v54.253h-69.882v-54.253zm97.422 0h69.882v54.253h-69.882v-54.253zm97.421 0h69.882v54.253h-69.882v-54.253zm168.061 54.253h-69.882v-54.253h69.882v54.253zM381.424 292.982l-115.253-66.921c-4.475-2.203-9.639-2.203-13.357 0-4.475 2.203-6.678 6.678-6.678 11.911v133.085c0 5.233 2.961 9.639 6.678 11.911 2.203 1.515 4.475 1.515 6.678 1.515 2.203 0 4.475-.757 6.678-1.515l115.253-66.921c4.475-2.203 6.678-6.678 6.678-11.911.002-3.718-2.959-8.193-6.677-11.154zm-108.575 55.011v-85.511l74.357 43.1-74.357 42.411z"/>
</svg>
